#!OML:ASF H:\Punching\Project 1\Capture day 1\Session 1\female.ASF
:FULLY-SPECIFIED
:DEGREES
2296
root 1.29652 15.3994 4.89632 -31.8995 -40.5037 11.1338
lowerback 4.56663 -0.125551 10.4602
upperback 3.34358 0.130532 -7.8204
thorax 1.05244 0.316018 -14.5984
lowerneck 5.44181 12.6739 14.3111
upperneck 47.6843 22.0018 -10.4243
head 22.3382 10.0711 -4.73213
rclavicle -1.21259e-014 -5.92378e-014
rhumerus 7.9246 45.6927 -82.9099
rradius 119.038
rwrist -9.12031
rhand -29.942 12.7937
rfingers 7.12502
rthumb -3.26144 -17.1611
lclavicle -1.21259e-014 -5.92378e-014
lhumerus -28.8212 0.40935 65.1157
lradius 140.624
lwrist 4.16378
lhand -25.7875 4.02212
lfingers 7.12502
lthumb 0.750972 34.0005
rfemur 17.895 13.7889 26.4697
rtibia 26.3819
rfoot -14.0243 -5.00544
rtoes 10.5156
lfemur -79.0255 1.68058 41.7746
ltibia 29.675
lfoot -197.895 225.443
ltoes 32.5298
2297
root 1.28472 15.3925 4.91755 -31.7738 -40.6004 10.8741
lowerback 4.32859 -0.205996 10.6749
upperback 3.29969 0.0104663 -7.83032
thorax 1.10338 0.260217 -14.7405
lowerneck 5.54963 12.7191 14.4429
upperneck 47.7457 22.0443 -10.3661
head 22.3926 10.1146 -4.72673
rclavicle -6.36111e-015 6.12257e-014
rhumerus 8.61741 45.5165 -81.993
rradius 118.829
rwrist -9.77374
rhand -29.6688 12.6983
rfingers 7.12502
rthumb -2.99758 -17.2603
lclavicle -6.36111e-015 6.12257e-014
lhumerus -28.7681 -0.00988341 65.9338
lradius 140.782
lwrist 3.64756
lhand -25.8386 4.25341
lfingers 7.12502
lthumb 0.701622 34.232
rfemur 18.0192 13.4 26.5055
rtibia 26.2963
rfoot -14.1385 -4.62692
rtoes 10.6325
lfemur -79.5344 2.32027 40.3262
ltibia 30.6464
lfoot -196.291 225.664
ltoes 31.3695
2298
root 1.27349 15.3813 4.93935 -31.7183 -40.6716 10.5767
lowerback 4.22762 -0.301316 10.8905
upperback 3.29208 -0.119952 -7.8307
thorax 1.11171 0.197699 -14.8728
lowerneck 5.61441 12.7551 14.5678
upperneck 47.7801 22.0674 -10.307
head 22.4262 10.1483 -4.71782
rclavicle -4.67144e-014 -1.59028e-014
rhumerus 9.38387 45.2996 -81.0172
rradius 118.654
rwrist -10.2712
rhand -29.4116 12.6414
rfingers 7.12502
rthumb -2.74922 -17.3206
lclavicle -4.67144e-014 -1.59028e-014
lhumerus -28.6325 -0.411525 66.6631
lradius 140.952
lwrist 3.1968
lhand -25.8668 4.34602
lfingers 7.12502
lthumb 0.674414 34.3247
rfemur 18.2336 13.0458 26.6196
rtibia 26.2616
rfoot -14.268 -4.34755
rtoes 10.7304
lfemur -80.386 2.75168 38.7475
ltibia 32.204
lfoot -185.366 227.367
ltoes 21.2484
2299
root 1.26266 15.3644 4.96135 -31.743 -40.7072 10.258
lowerback 4.27159 -0.409087 11.0607
upperback 3.32139 -0.257328 -7.81718
thorax 1.07421 0.12893 -14.9596
lowerneck 5.64273 12.7808 14.6791
upperneck 47.7851 22.0728 -10.2532
head 22.435 10.1717 -4.70776
rclavicle 2.74323e-014 -3.02153e-014
rhumerus 10.1814 45.0501 -80.012
rradius 118.516
rwrist -10.5165
rhand -29.2209 12.5993
rfingers 7.12502
rthumb -2.56507 -17.365
lclavicle 2.74323e-014 -3.02153e-014
lhumerus -28.4192 -0.789803 67.3096
lradius 141.119
lwrist 2.79918
lhand -25.8712 4.32521
lfingers 7.12502
lthumb 0.670134 34.3039
rfemur 18.5201 12.7606 26.8208
rtibia 26.3245
rfoot -14.4274 -4.22485
rtoes 10.7923
lfemur -81.2927 2.96867 37.1172
ltibia 34.1844
lfoot -174.292 227.071
ltoes 10.4306
2300
root 1.25196 15.3414 4.98129 -31.8281 -40.7013 9.92395
lowerback 4.45806 -0.521664 11.1493
upperback 3.37956 -0.391777 -7.78463
thorax 0.986967 0.0574422 -14.9711
lowerneck 5.62879 12.7934 14.7713
upperneck 47.7675 22.0559 -10.2014
head 22.4235 10.1823 -4.69488
rclavicle -9.8796e-014 5.20816e-014
rhumerus 10.9647 44.7678 -79.007
rradius 118.405
rwrist -10.4509
rhand -29.1782 12.5852
rfingers 7.12502
rthumb -2.52376 -17.3796
lclavicle -9.8796e-014 5.20816e-014
lhumerus -28.118 -1.1582 67.8858
lradius 141.266
lwrist 2.44163
lhand -25.8609 4.25131
lfingers 7.12502
lthumb 0.680052 34.23
rfemur 18.8365 12.5648 27.12
rtibia 26.5143
rfoot -14.6212 -4.29327
rtoes 10.8157
lfemur -82.9132 7.09309 26.9653
ltibia 36.4892
lfoot -161.225 217.481
ltoes 2.92584
